<svg xmlns="http://www.w3.org/2000/svg" xmlns:svgjs="http://svgjs.com/svgjs" xmlns:xlink="http://www.w3.org/1999/xlink" width="288" height="288"><svg xmlns="http://www.w3.org/2000/svg" width="288" height="288" enable-background="new 0 0 612 612" viewBox="0 0 612 612"><path fill="#ffc709" d="M545.325 500.685H66.675c-30.737 0-55.657 24.92-55.657 55.657 0 30.737 24.92 55.657 55.657 55.657h478.65c30.737 0 55.657-24.92 55.657-55.657C600.982 525.604 576.062 500.685 545.325 500.685zM129.753 464.922c30.737 0 55.657-24.92 55.657-55.657v-212.61c0-30.737-24.92-55.657-55.657-55.657s-55.657 24.92-55.657 55.657v212.61C74.095 440.002 99.016 464.922 129.753 464.922zM306.002 464.922c30.737 0 55.657-24.92 55.657-55.657V126.157c0-30.737-24.92-55.657-55.657-55.657s-55.657 24.92-55.657 55.657v283.108C250.345 440.002 275.263 464.922 306.002 464.922zM482.245 464.922c30.737 0 55.655-24.92 55.655-55.657V55.657C537.903 24.92 512.984 0 482.245 0c-30.737 0-55.657 24.92-55.657 55.657v353.607C426.588 440.002 451.508 464.922 482.245 464.922z" class="color000 svgShape"/></svg></svg>